ModelForces
version=1
nRows=4
nColumns=158
inDegrees=no

This file contains the forces exerted on a model during a simulation.

A force is a generalized force, meaning that it can be either a force (N) or a torque (Nm).

Units are S.I. units (second, meters, Newtons, ...)
Angles are in degrees.

endheader
time	glut_med1_r	glut_med2_r	glut_med3_r	glut_min1_r	glut_min2_r	glut_min3_r	semimem_r	semiten_r	bifemlh_r	bifemsh_r	sar_r	add_long_r	add_brev_r	add_mag1_r	add_mag2_r	add_mag3_r	tfl_r	pect_r	grac_r	glut_max1_r	glut_max2_r	glut_max3_r	iliacus_r	psoas_r	quad_fem_r	gem_r	peri_r	rect_fem_r	vas_med_r	vas_int_r	vas_lat_r	med_gas_r	lat_gas_r	soleus_r	tib_post_r	flex_dig_r	flex_hal_r	tib_ant_r	per_brev_r	per_long_r	per_tert_r	ext_dig_r	ext_hal_r	glut_med1_l	glut_med2_l	glut_med3_l	glut_min1_l	glut_min2_l	glut_min3_l	semimem_l	semiten_l	bifemlh_l	bifemsh_l	sar_l	add_long_l	add_brev_l	add_mag1_l	add_mag2_l	add_mag3_l	tfl_l	pect_l	grac_l	glut_max1_l	glut_max2_l	glut_max3_l	iliacus_l	psoas_l	quad_fem_l	gem_l	peri_l	rect_fem_l	vas_med_l	vas_int_l	vas_lat_l	med_gas_l	lat_gas_l	soleus_l	tib_post_l	flex_dig_l	flex_hal_l	tib_ant_l	per_brev_l	per_long_l	per_tert_l	ext_dig_l	ext_hal_l	ercspn_r	ercspn_l	intobl_r	intobl_l	extobl_r	extobl_l	femur_lat_meniscii_r.femur_lat_r.force.X	femur_lat_meniscii_r.femur_lat_r.force.Y	femur_lat_meniscii_r.femur_lat_r.force.Z	femur_lat_meniscii_r.femur_lat_r.torque.X	femur_lat_meniscii_r.femur_lat_r.torque.Y	femur_lat_meniscii_r.femur_lat_r.torque.Z	femur_lat_meniscii_r.meniscus_lat_r.force.X	femur_lat_meniscii_r.meniscus_lat_r.force.Y	femur_lat_meniscii_r.meniscus_lat_r.force.Z	femur_lat_meniscii_r.meniscus_lat_r.torque.X	femur_lat_meniscii_r.meniscus_lat_r.torque.Y	femur_lat_meniscii_r.meniscus_lat_r.torque.Z	femur_med_meniscii_r.femur_med_r.force.X	femur_med_meniscii_r.femur_med_r.force.Y	femur_med_meniscii_r.femur_med_r.force.Z	femur_med_meniscii_r.femur_med_r.torque.X	femur_med_meniscii_r.femur_med_r.torque.Y	femur_med_meniscii_r.femur_med_r.torque.Z	femur_med_meniscii_r.meniscus_med_r.force.X	femur_med_meniscii_r.meniscus_med_r.force.Y	femur_med_meniscii_r.meniscus_med_r.force.Z	femur_med_meniscii_r.meniscus_med_r.torque.X	femur_med_meniscii_r.meniscus_med_r.torque.Y	femur_med_meniscii_r.meniscus_med_r.torque.Z	femur_med_tibia_r.tibia_upper_r.force.X	femur_med_tibia_r.tibia_upper_r.force.Y	femur_med_tibia_r.tibia_upper_r.force.Z	femur_med_tibia_r.tibia_upper_r.torque.X	femur_med_tibia_r.tibia_upper_r.torque.Y	femur_med_tibia_r.tibia_upper_r.torque.Z	femur_med_tibia_r.femur_med_r.force.X	femur_med_tibia_r.femur_med_r.force.Y	femur_med_tibia_r.femur_med_r.force.Z	femur_med_tibia_r.femur_med_r.torque.X	femur_med_tibia_r.femur_med_r.torque.Y	femur_med_tibia_r.femur_med_r.torque.Z	femur_lat_tibia_r.tibia_upper_r.force.X	femur_lat_tibia_r.tibia_upper_r.force.Y	femur_lat_tibia_r.tibia_upper_r.force.Z	femur_lat_tibia_r.tibia_upper_r.torque.X	femur_lat_tibia_r.tibia_upper_r.torque.Y	femur_lat_tibia_r.tibia_upper_r.torque.Z	femur_lat_tibia_r.femur_lat_r.force.X	femur_lat_tibia_r.femur_lat_r.force.Y	femur_lat_tibia_r.femur_lat_r.force.Z	femur_lat_tibia_r.femur_lat_r.torque.X	femur_lat_tibia_r.femur_lat_r.torque.Y	femur_lat_tibia_r.femur_lat_r.torque.Z	aACL_R	pACL_R	aPCL_R	pPCL_R	aMCL_R	mMCL_R	pMCL_R	aLCL_R	mLCL_R	pLCL_R	aPCL_L	pPCL_L	aMCL_L	aLCL_L	ground_prescribedForce_-20_fx	ground_prescribedForce_-20_fy	ground_prescribedForce_-20_fz
      0.26439507	      8.60521783	      6.39170752	      6.85207030	      2.98430429	      3.53153600	      3.63893282	      6.80915256	      4.54555448	      8.79173631	      8.48800245	      1.30549167	      6.34148846	      4.64289193	      3.29016859	      2.77374643	      4.56542345	      4.55065014	      2.51454388	      1.68867470	      4.12445996	      6.27003578	      4.69068966	     23.96677711	     14.45579924	      4.08075764	      3.06842260	      4.89439384	     14.17490641	      9.78728092	     10.89802435	     14.99164534	      3.11794064	      1.82867485	      9.57337859	      9.31141546	      2.96386912	      1.87596247	     14.50072740	      4.57508532	      8.74832513	      7.73452975	      6.65578035	      2.69970953	      8.60521783	      6.39170752	      6.85207030	      2.98430429	      3.53153600	      3.63893282	     10.26503884	      4.64947664	      8.95523747	      8.12017239	      1.70480656	      6.34148846	      4.64289193	      3.29016859	      2.77374643	      4.56542345	      4.45495767	      2.51454388	      1.75202305	      4.12445996	      6.27003578	      4.69068966	     23.96677711	     14.45579924	      4.08075764	      3.06842260	      4.89439384	     12.40188186	      7.45901724	      8.57630998	      9.21662298	     17.19021190	      7.98374148	     37.20082837	     44.81529402	      3.39404989	      3.51512803	      9.76202288	      5.10515518	     14.18966645	      2.23647089	      6.26377997	      1.97310077	     28.07399846	     28.07399846	     10.20810059	     10.20810059	     27.89022727	     27.89022727	     47.42196796	     74.47774525	     16.76214006	     -8.73438012	      1.15066536	     19.62682203	    -47.42196796	    -74.47774525	    -16.76214006	      2.45039700	     -1.35899565	     -0.92307563	     32.76321394	     39.53660123	     11.84621755	     -3.96197559	     -0.81166770	     13.61686388	    -32.76321394	    -39.53660123	    -11.84621755	     -0.50398791	      0.66586430	     -0.77868258	     -6.40953419	    -16.25200011	     -3.52410790	     -0.25636616	      0.14541182	     -0.20396712	      6.40953419	     16.25200011	      3.52410790	     -1.06366250	     -0.18243833	      2.77554660	      0.00000000	      0.00000000	      0.00000000	      0.00000000	      0.00000000	      0.00000000	      0.00000000	      0.00000000	      0.00000000	      0.00000000	      0.00000000	      0.00000000	     46.39108386	     35.63421261	      0.00000000	      0.00000000	      0.00000000	      0.00000000	      0.66238528	      5.82818946	      0.00000000	      0.00000000	      0.00000000	      0.00000000	      0.00000001	      0.00000000	    103.36618800	    -37.62220000	      0.00000000
      0.26679642	      8.57261846	      6.36939050	      6.82784793	      2.97432602	      3.52070345	      3.62517835	      6.76642282	      4.52327188	      8.73460047	      8.42911053	      1.85026201	      6.31908562	      4.62751111	      3.27875565	      2.76389386	      4.54759065	      4.53749841	      2.50608063	      1.68103524	      4.11005046	      6.24806756	      4.67396232	     23.92613173	     14.40977229	      4.06681396	      3.06180048	      4.87053658	     14.08426600	      9.72377206	     10.81998199	     14.88023078	      3.12296087	      1.83065556	      9.62596877	      9.18830635	      2.92141318	      1.80473953	     14.40254144	      4.64224592	      8.82054778	      8.34195281	      6.82334315	      2.71149625	      8.57261846	      6.36939050	      6.82784793	      2.97432602	      3.52070345	      3.62517835	     10.21874461	      4.63202269	      8.91628097	      8.09240493	      1.69913273	      6.31908562	      4.62751111	      3.27875565	      2.76389386	      4.54759065	      4.44390724	      2.50608063	      1.74608981	      4.11005046	      6.24806756	      4.67396232	     23.92613173	     14.40977229	      4.06681396	      3.06180048	      4.87053658	     12.34868846	      7.43231475	      8.54503047	      9.18313789	     17.09910895	      7.94138326	     37.01920749	     44.74088530	      3.37482759	      3.49737713	      9.72170636	      5.08176679	     14.13856979	      2.22935372	      6.23145227	      1.96319239	     27.97991639	     27.97991639	     10.17089736	     10.17089736	     27.85677367	     27.85677367	     46.92665972	     74.00888945	     16.86378396	     -8.76549260	      1.13925913	     19.41951075	    -46.92665972	    -74.00888945	    -16.86378396	      2.44141184	     -1.34727652	     -0.90865206	     33.00601670	     39.78688158	     11.92383895	     -3.98869264	     -0.81644802	     13.71679414	    -33.00601670	    -39.78688158	    -11.92383895	     -0.50669402	      0.66969684	     -0.78357862	     -6.77814586	    -17.42814510	     -3.81532863	     -0.27369435	      0.15342528	     -0.21453112	      6.77814586	     17.42814510	      3.81532863	     -1.15579061	     -0.19319374	      2.93575099	      0.00000000	      0.00000000	      0.00000000	      0.00000000	      0.00000000	      0.00000000	      0.00000000	      0.00000000	      0.00000000	      0.00000000	      0.00000000	      0.00000000	     46.59908286	     35.90214042	      0.00000000	      0.00000000	      0.00000000	      0.00000000	      0.65866394	      5.70312083	      0.00000000	      0.00000000	      0.00000000	      0.00000000	      0.00000001	      0.00000000	    103.36618800	    -37.62220000	      0.00000000
      0.27105028	      8.51733349	      6.33153503	      6.78676285	      2.95739802	      3.50232784	      3.60185186	      6.69949290	      4.48886338	      8.64534668	      8.36843843	      1.55555477	      6.28108678	      4.60142221	      3.25939642	      2.74718333	      4.51734930	      4.51710164	      2.49172286	      1.67437418	      4.08560974	      6.21080627	      4.64559195	     23.85719979	     14.33173189	      4.04315987	      3.05057312	      4.82998261	     13.93891448	      9.62660995	     10.70236809	     14.70546998	      3.15330146	      1.84689955	      9.76650039	      9.02345027	      2.83577426	      1.68585326	     14.23702261	      4.73206120	      8.93345950	      8.57618899	      7.16536135	      2.72768513	      8.51733349	      6.33153503	      6.78676285	      2.95739802	      3.50232784	      3.60185186	     10.14016303	      4.60242210	      8.85017806	      8.04530059	      1.68950750	      6.28108678	      4.60142221	      3.25939642	      2.74718333	      4.51734930	      4.42516787	      2.49172286	      1.73602429	      4.08560974	      6.21080627	      4.64559195	     23.85719979	     14.33173189	      4.04315987	      3.05057312	      4.82998261	     12.25843782	      7.38703012	      8.49198704	      9.12635625	     16.94390512	      7.86922284	     36.71050286	     44.61457354	      3.34237889	      3.46718557	      9.65332098	      5.04205770	     14.05168978	      2.21728497	      6.17651736	      1.94637127	     27.82030654	     27.82030654	     10.10779987	     10.10779987	     27.80003995	     27.80003995	     45.87524833	     72.70028274	     16.69055943	     -8.66034793	      1.11371794	     18.98203238	    -45.87524833	    -72.70028274	    -16.69055943	      2.39965149	     -1.31827436	     -0.88303969	     33.36065875	     40.14540944	     12.03537512	     -4.02692678	     -0.82385425	     13.86289558	    -33.36065875	    -40.14540944	    -12.03537512	     -0.51085552	      0.67581936	     -0.79090351	     -7.56723711	    -19.48709013	     -4.22096634	     -0.30858245	      0.17164298	     -0.23928951	      7.56723711	     19.48709013	      4.22096634	     -1.27263195	     -0.21572994	      3.27758687	      0.00000000	      0.00000000	      0.00000000	      0.00000000	      0.00000000	      0.00000000	      0.00000000	      0.00000000	      0.00000000	      0.00000000	      0.00000000	      0.00000000	     47.20249397	     36.63908032	      0.00000000	      0.00000000	      0.00000000	      0.00000000	      0.92471571	      5.84711099	      0.00000000	      0.00000000	      0.00000000	      0.00000000	      0.00000001	      0.00000000	    103.36618800	    -37.62220000	      0.00000000
      0.27534806	      8.46452380	      6.29536450	      6.74750932	      2.94121888	      3.48476909	      3.57956928	      6.64800336	      4.46242398	      8.56799737	      8.31565035	      2.40855478	      6.24478193	      4.57647475	      3.24089897	      2.73121896	      4.48846337	      4.50063233	      2.47800140	      1.66497221	      4.06225869	      6.17520648	      4.61848860	     23.79135160	     14.25720486	      4.02055609	      3.03985198	      4.79112897	     13.81549786	      9.56511656	     10.62156456	     14.57147665	      3.19647615	      1.87395870	      9.93756546	      8.92779586	      2.73993375	      1.57897703	     14.08077783	      4.78528166	      9.02197183	      0.00000000	      7.52809540	      2.73741537	      8.46452380	      6.29536450	      6.74750932	      2.94121888	      3.48476909	      3.57956928	     10.06501417	      4.57414610	      8.78699091	      8.00028840	      1.68030715	      6.24478193	      4.57647475	      3.24089897	      2.73121896	      4.48846337	      4.40726873	      2.47800140	      1.72640516	      4.06225869	      6.17520648	      4.61848860	     23.79135160	     14.25720486	      4.02055609	      3.03985198	      4.79112897	     12.17218006	      7.34377269	      8.44132211	      9.07212308	     16.79478194	      7.79989121	     36.41477270	     44.49376634	      3.31176400	      3.43822557	      9.58798230	      5.00407233	     13.96842123	      2.20575797	      6.12391580	      1.93028499	     27.66776171	     27.66776171	     10.04752150	     10.04752150	     27.74584592	     27.74584592	     44.85026139	     71.38332726	     16.62171812	     -8.60083484	      1.09042923	     18.55548837	    -44.85026139	    -71.38332726	    -16.62171812	      2.36347939	     -1.29229105	     -0.85836532	     33.52223153	     40.33022813	     12.09923136	     -4.04971697	     -0.82652159	     13.92852923	    -33.52223153	    -40.33022813	    -12.09923136	     -0.51253345	      0.67792995	     -0.79302126	     -8.08561923	    -20.84804537	     -4.49228620	     -0.33168984	      0.18366852	     -0.25556516	      8.08561923	     20.84804537	      4.49228620	     -1.35111684	     -0.23060026	      3.50223481	      0.00000000	      0.00000000	      0.00000000	      0.00000000	      0.00000000	      0.00000000	      0.00000000	      0.00000000	      0.00000000	      0.00000000	      0.00000000	      0.00000000	     47.78615981	     37.34903004	      0.00000000	      0.00000000	      0.00000000	      0.00000000	      1.17300421	      5.96985821	      0.00000000	      0.00000000	      0.00000000	      0.00000000	      0.00000001	      0.00000000	    103.36618800	    -37.62220000	      0.00000000
